<svg width="113" height="25" viewBox="0 0 113 25" fill="none" xmlns="http://www.w3.org/2000/svg">
<path id="Union" fill-rule="evenodd" clip-rule="evenodd" d="M80.4616 15.4629H80.4615C80.0074 15.4675 79.5666 15.472 79.1278 15.4711C78.8036 15.4383 78.4768 15.4383 78.1526 15.4711C78.2031 14.4452 78.1839 12.3883 78.1302 11.3624L78.1252 11.2699L78.1251 11.2674L78.125 11.2656C78.1149 11.0774 78.1143 11.0655 78.1156 11.0653L78.1159 11.0653C78.1185 11.0662 78.1246 11.0685 78.1059 10.4462C79.6566 10.4705 81.9664 10.48 84.0044 10.4885L84.0054 10.4885C84.9681 10.4924 85.87 10.4962 86.6026 10.5011C86.5968 10.2926 86.6161 10.0842 86.6601 9.88031C87.0161 6.13337 89.2126 3.62796 92.4393 1.99405C94.7522 0.743066 97.3464 0.101651 99.9767 0.130453C102.607 0.159256 105.187 0.857324 107.471 2.15865C111.242 4.19322 113.287 7.34811 112.967 11.7707C112.908 13.887 112.507 15.9799 111.781 17.9688C111.269 19.3183 110.46 20.5352 109.412 21.5293C108.365 22.5234 107.106 23.2691 105.73 23.7108C101.864 25.0134 97.6758 25.0085 93.8127 23.6968C91.8161 23.0681 90.0947 21.7771 88.934 20.0378C88.7915 19.8241 88.6357 19.6195 88.4674 19.4254C88.2672 19.5972 88.0858 19.7896 87.9261 19.9996C86.8527 21.3972 85.49 22.5473 83.931 23.3715C82.372 24.1957 80.6533 24.6746 78.892 24.7756C70.9673 25.4378 64.3106 18.2087 65.6885 10.4615C66.4829 5.99109 68.8756 2.75709 73.1019 0.921579C77.7033 -1.07726 83.9906 0.295705 86.9317 3.87741C87.0145 3.97833 87.0698 4.04554 87.1078 4.09168L87.1079 4.0918C87.172 4.16957 87.1867 4.18741 87.2003 4.20607L87.2134 4.22454C87.2377 4.25921 87.2886 4.33165 87.5024 4.61366C85.8695 5.58278 82.8805 7.55737 81.3033 8.60879C81.1156 8.49657 81.0781 8.47212 81.0479 8.45243C81.0116 8.4288 80.9858 8.412 80.7236 8.25853C77.8241 6.56338 74.5711 7.58927 73.3812 10.533C72.966 11.564 72.9077 12.7038 73.2155 13.7717C73.5232 14.8395 74.1794 15.7741 75.0799 16.4272C75.9804 17.0803 77.0737 17.4144 78.1861 17.3765C79.2985 17.3387 80.3664 16.931 81.2202 16.2182C81.4925 16.0312 81.6994 15.764 81.812 15.4538C81.3432 15.4538 80.8964 15.4584 80.4618 15.4629H80.4617H80.4616ZM100.061 13.7778C100.189 13.7709 100.341 13.7666 100.508 13.762C100.924 13.7504 101.439 13.736 101.949 13.67C104.204 13.3804 106.398 12.884 108.172 11.3471C109.709 10.0143 109.745 8.37592 108.3 6.96595C107.994 6.70819 107.755 6.3797 107.604 6.00896C107.44 5.45283 107.102 4.96338 106.641 4.61148C106.179 4.25958 105.617 4.06348 105.036 4.05159C104.854 4.04503 104.675 4.00116 104.51 3.9227C104.345 3.84424 104.198 3.73285 104.078 3.59542C103.817 3.2856 103.495 3.03373 103.131 2.85603C102.766 2.67833 102.369 2.57876 101.964 2.56374C101.559 2.54871 101.156 2.61856 100.78 2.76878C100.403 2.919 100.063 3.14627 99.7799 3.43592C99.6551 3.58563 99.4769 3.681 99.283 3.70184C99.089 3.72267 98.8945 3.66735 98.7407 3.54757C98.2831 3.29187 97.7619 3.17172 97.2382 3.20121C96.7146 3.23071 96.2103 3.40862 95.7843 3.71409C95.4108 3.97195 94.9585 4.09092 94.5062 4.05031C93.8394 4.0047 93.178 4.1967 92.6397 4.59215C92.1014 4.98759 91.7211 5.56084 91.5664 6.20993C91.4263 6.67302 91.189 7.10103 90.8704 7.4655C90.4817 7.89627 90.2597 8.45127 90.2441 9.03081C90.2285 9.61035 90.4204 10.1765 90.7854 10.6274C91.1856 11.1907 91.7051 11.6593 92.3071 11.9997C94.6039 13.3714 97.1494 13.7606 100.061 13.7778ZM6.97385 21.984L6.97365 21.984L6.9733 21.984C6.77286 21.9921 6.72561 21.994 6.67835 21.9942C6.66378 21.9943 6.64922 21.9942 6.63017 21.9941C6.55404 21.9938 6.40629 21.993 5.90068 22.0003C5.4286 22.0003 4.95647 21.9992 4.48432 21.998H4.48425H4.48419H4.48412H4.48386C3.22462 21.995 1.96524 21.992 0.70619 22.0105C0.556249 22.0125 0.556382 22.0125 0.559443 22.0119C0.564313 22.0109 0.576599 22.0086 0.00319543 22.0105L0.00353167 21.8775L0 22.0131C0.0103489 17.9619 0.00673258 13.2866 0.00328496 8.82944C0.00162287 6.68064 0 4.58254 0 2.6295H0.374716C0.41466 2.62524 0.458956 2.62366 0.508073 2.62503C1.37016 2.64626 2.23357 2.63695 3.09696 2.62764C5.2956 2.60394 7.49416 2.58024 9.67065 3.06078C14.605 4.14538 17.2719 7.66329 17.0757 12.6709C16.9351 16.2769 15.5451 19.0732 12.181 20.7199C10.6228 21.4182 8.95532 21.8421 7.25235 21.9729L6.97385 21.984ZM6.27007 12.2843V15.8768C6.27007 16.0075 6.27007 16.0113 6.26952 16.015L6.26947 16.0154C6.2686 16.0211 6.26644 16.0353 6.26113 16.4893C7.8729 16.4153 9.37028 16.1065 10.1596 14.9454C10.6162 14.2654 10.8883 13.4788 10.9491 12.6624C11.0099 11.8461 10.8574 11.0279 10.5066 10.288C9.87132 8.75681 8.4615 8.32361 6.92194 8.17623C6.42601 8.12966 6.25218 8.27768 6.26432 8.77659C6.28085 9.59386 6.27708 10.4105 6.27332 11.2276C6.2717 11.5797 6.27007 11.9319 6.27007 12.2843ZM41.956 15.885L41.956 15.885L41.9562 15.8848C42.3068 15.4251 42.4749 15.2047 42.8533 14.6544C42.9713 16.0905 43.0142 17.5318 42.9817 18.9724C42.987 19.1961 42.9879 19.1995 42.9884 19.2014L42.9884 19.2014C42.9891 19.2037 42.9891 19.2062 42.9959 19.619L42.996 19.6241L42.9971 19.6895C44.1525 19.657 45.9694 19.657 47.1249 19.6742C47.286 19.6768 47.2693 19.6768 47.2365 19.6767C47.1803 19.6767 47.0772 19.6766 47.741 19.6895C47.7308 15.1725 47.7257 10.05 47.741 5.53301V4.89502C46.8424 4.91735 44.7334 4.91926 43.8387 4.89502C43.6516 5.14533 43.6299 5.17491 43.6191 5.18967L43.6191 5.18976L43.6169 5.19268C43.6077 5.20528 43.5983 5.21776 43.4682 5.39057L43.4651 5.39469L43.4642 5.39584C42.6799 6.57156 41.7694 7.83768 40.7879 9.20247C40.5161 9.5803 40.239 9.96569 39.9576 10.3588C39.4354 9.56851 38.753 8.64408 38.0787 7.73074L38.0787 7.73068C37.4897 6.93272 36.9069 6.14322 36.4426 5.45901L36.3716 5.35381L36.3712 5.35326C36.3281 5.28932 36.3093 5.26142 36.2897 5.23404C36.2746 5.21296 36.2591 5.1922 36.2317 5.15556L36.2316 5.15536L36.2315 5.15528C36.1957 5.10739 36.1397 5.0324 36.038 4.89438C35.0858 4.9199 33.0401 4.92373 32.0859 4.90459C32.0875 5.21147 32.0883 5.25556 32.0887 5.27751V5.27756L32.0888 5.28319C32.0891 5.30132 32.0891 5.31945 32.0891 5.51898C32.0993 10.0328 32.0994 15.1495 32.084 19.6665C32.314 19.6543 32.5445 19.6566 32.7742 19.6736C33.3836 19.6844 33.9566 19.6836 34.5388 19.6827C34.9792 19.682 35.4248 19.6813 35.8955 19.6857L36.8081 19.6927C36.7734 18.8969 36.8116 17.7287 36.8474 16.6373L36.8474 16.6371V16.637V16.6369V16.6367C36.8708 15.9214 36.8931 15.2391 36.8931 14.7163C37.9755 15.9523 38.9914 17.2448 39.9365 18.5883C41.0635 17.0553 41.6025 16.3485 41.956 15.885ZM64.5515 12.3168C64.5642 13.8651 64.1155 15.3822 63.2623 16.6752C62.4092 17.9683 61.1903 18.9789 59.7604 19.5787C58.3305 20.1785 56.7543 20.3404 55.2321 20.0437C53.7098 19.747 52.3103 19.0052 51.2114 17.9126C50.1125 16.82 49.3638 15.4259 49.0605 13.9074C48.7572 12.389 48.913 10.8148 49.508 9.385C50.1031 7.95516 51.1105 6.73422 52.4024 5.87737C53.6942 5.02051 55.212 4.56643 56.763 4.57283C57.7847 4.56719 58.7975 4.76341 59.743 5.1502C60.6884 5.53699 61.5479 6.1067 62.2718 6.82651C62.9958 7.54632 63.5699 8.402 63.9612 9.34428C64.3524 10.2866 64.5531 11.2968 64.5515 12.3168ZM56.7547 9.22063C56.3455 9.21238 55.9387 9.28524 55.5579 9.43501C55.1771 9.58479 54.8298 9.80848 54.5362 10.0932C54.2426 10.3778 54.0085 10.7178 53.8474 11.0934C53.6864 11.4691 53.6015 11.8728 53.5978 12.2814C53.5942 12.69 53.6717 13.0952 53.826 13.4737C53.9803 13.8521 54.2082 14.1963 54.4967 14.4862C54.7851 14.7761 55.1283 15.0059 55.5063 15.1625C55.8844 15.3191 56.2898 15.3993 56.6991 15.3983C57.1083 15.4066 57.5151 15.3337 57.8959 15.184C58.2767 15.0342 58.6239 14.8105 58.9175 14.5258C59.2111 14.2411 59.4452 13.9012 59.6063 13.5255C59.7674 13.1499 59.8522 12.7461 59.8559 12.3376C59.8596 11.929 59.782 11.5237 59.6278 11.1453C59.4735 10.7668 59.2455 10.4227 58.9571 10.1328C58.6686 9.84292 58.3255 9.61302 57.9474 9.45645C57.5694 9.29987 57.164 9.21972 56.7547 9.22063ZM23.473 18.3307C23.5808 18.3306 23.6692 18.3306 23.7299 18.3306C23.7299 18.331 23.7299 18.3313 23.73 18.3316C23.7304 18.3324 23.7317 18.3328 23.7367 18.3337L23.7299 18.3337L26.3808 19.6703C26.3606 19.0074 26.3509 18.8644 26.3379 18.6708C26.332 18.5843 26.3255 18.4877 26.3171 18.3301C26.3199 18.3298 26.3226 18.3295 26.3252 18.3293C26.3338 18.4885 26.3403 18.5857 26.3462 18.6727C26.3592 18.8663 26.3689 19.0093 26.3891 19.6723H27.1043C28.1439 19.6757 29.1832 19.6757 30.2224 19.6723C30.7931 19.6703 30.5743 19.6696 30.5743 19.6693C30.5743 19.6691 30.6731 19.6691 31.1765 19.6691C30.6679 18.3452 30.1205 16.9125 29.5608 15.4476C28.5205 12.7247 27.4375 9.89038 26.4818 7.4355C26.1533 6.59845 25.9852 6.19715 25.4874 5.02515C25.029 5.03202 24.4471 5.02964 23.8582 5.02724C23.1344 5.02428 22.4 5.02129 21.8714 5.03536C20.3372 9.06648 18.4649 13.9248 16.8417 18.1366C16.6394 18.6616 16.4409 19.1766 16.2475 19.6786C16.9566 19.675 16.7038 19.6808 16.7038 19.6814C16.7038 19.6816 16.7431 19.681 16.8962 19.6786C17.9677 19.6601 19.0408 19.6668 20.1131 19.6734C20.2246 19.6741 20.3361 19.6748 20.4476 19.6754C20.6033 19.6772 20.6198 19.6773 20.6361 19.6756C20.6562 19.6736 20.6761 19.6686 20.9588 19.6601C21.0169 19.4078 21.0293 19.3539 21.0424 19.3001C21.0626 19.2172 21.0845 19.1346 21.2784 18.3235C21.6277 18.3322 22.862 18.3312 23.473 18.3307ZM26.3171 18.3301C26.317 18.3292 26.317 18.3283 26.3169 18.3274L23.7367 18.3337C23.7377 18.3339 23.7388 18.3341 23.7401 18.3344C23.82 18.3344 23.9809 18.3359 24.1857 18.3379C24.8678 18.3444 26.0367 18.3556 26.3171 18.3301ZM23.5009 13.0927C23.5579 12.9441 23.6185 12.7969 23.7369 12.5012V12.5018C23.8148 12.7332 23.8902 12.9413 23.9659 13.1499C24.1538 13.6678 24.3429 14.1889 24.5716 15.078C24.3451 15.074 24.0702 15.0781 23.7898 15.0823C23.4452 15.0874 23.0922 15.0927 22.8103 15.0832C23.2929 13.6766 23.39 13.382 23.5009 13.0927Z" fill="#00A3F4"/>
</svg>
